<svg id="Layer_1" data-name="Layer 1" xmlns="http://www.w3.org/2000/svg" xmlns:xlink="http://www.w3.org/1999/xlink" viewBox="0 0 4096 2160"><defs><style>.cls-1,.cls-10,.cls-11,.cls-12,.cls-13,.cls-14,.cls-15,.cls-17,.cls-18,.cls-19,.cls-2,.cls-20,.cls-3,.cls-4,.cls-5{stroke:#000;stroke-width:7px;}.cls-1,.cls-10,.cls-11,.cls-12,.cls-13,.cls-14,.cls-15,.cls-17,.cls-18,.cls-19,.cls-2,.cls-20,.cls-21,.cls-22,.cls-3,.cls-4,.cls-5{stroke-miterlimit:10;}.cls-1{fill:url(#linear-gradient);}.cls-2{fill:url(#radial-gradient);}.cls-3{fill:url(#radial-gradient-2);}.cls-4{fill:url(#radial-gradient-3);}.cls-5{fill:url(#radial-gradient-4);}.cls-6{fill:#0ea2dc;}.cls-7{fill:#dac924;}.cls-8{fill:#5ea446;}.cls-9{fill:#d84a4d;}.cls-10{fill:url(#radial-gradient-5);}.cls-11,.cls-21,.cls-22{fill:none;}.cls-12{fill:url(#radial-gradient-6);}.cls-13{fill:url(#radial-gradient-7);}.cls-14{fill:url(#radial-gradient-8);}.cls-15{fill:url(#radial-gradient-9);}.cls-16{fill:#f1f1f2;}.cls-17{fill:url(#radial-gradient-10);}.cls-18{fill:url(#radial-gradient-11);}.cls-19{fill:url(#linear-gradient-2);}.cls-20{fill:url(#linear-gradient-3);}.cls-21,.cls-22{stroke:#d0d2d3;stroke-width:5px;}.cls-22{stroke-linecap:round;}</style><linearGradient id="linear-gradient" x1="1188" y1="1096.48" x2="2909.01" y2="1096.48" gradientUnits="userSpaceOnUse"><stop offset="0.05" stop-color="#030303"/><stop offset="0.29" stop-color="#0d0d0d"/><stop offset="0.52" stop-color="#1c1c1c"/><stop offset="0.77" stop-color="#0c0c0c"/><stop offset="1" stop-color="#030303"/></linearGradient><radialGradient id="radial-gradient" cx="2375.95" cy="810.21" r="57.76" gradientUnits="userSpaceOnUse"><stop offset="0.22" stop-color="#282828"/><stop offset="1" stop-color="#101010"/></radialGradient><radialGradient id="radial-gradient-2" cx="2605.63" cy="810.52" r="57.76" xlink:href="#radial-gradient"/><radialGradient id="radial-gradient-3" cx="2490.79" cy="925.05" r="57.76" xlink:href="#radial-gradient"/><radialGradient id="radial-gradient-4" cx="2490.79" cy="695.37" r="57.76" xlink:href="#radial-gradient"/><radialGradient id="radial-gradient-5" cx="2275.88" cy="1073" r="94.87" gradientUnits="userSpaceOnUse"><stop offset="0.15" stop-color="#212121"/><stop offset="1" stop-color="#0a0a0a"/></radialGradient><radialGradient id="radial-gradient-6" cx="1602.26" cy="815.86" r="94.87" xlink:href="#radial-gradient-5"/><radialGradient id="radial-gradient-7" cx="1816.41" cy="1091.48" r="140.02" xlink:href="#radial-gradient-5"/><radialGradient id="radial-gradient-8" cx="1921.91" cy="808.15" r="40.03" gradientUnits="userSpaceOnUse"><stop offset="0.22" stop-color="#282828"/><stop offset="1" stop-color="#151515"/></radialGradient><radialGradient id="radial-gradient-9" cx="2173.03" cy="808.15" r="40.03" xlink:href="#radial-gradient-8"/><radialGradient id="radial-gradient-10" cx="2046.5" cy="904.78" r="37.95" xlink:href="#radial-gradient-8"/><radialGradient id="radial-gradient-11" cx="1816.76" cy="1091.77" r="127.89" gradientTransform="translate(1296.39 -957.15) rotate(45) scale(1 0.99)" xlink:href="#radial-gradient-5"/><linearGradient id="linear-gradient-2" x1="1443.04" y1="552.88" x2="1791.65" y2="552.88" gradientUnits="userSpaceOnUse"><stop offset="0" stop-color="#0a0a0a"/><stop offset="0.25" stop-color="#151515"/><stop offset="0.52" stop-color="#191919"/><stop offset="0.77" stop-color="#141414"/><stop offset="1" stop-color="#0a0a0a"/></linearGradient><linearGradient id="linear-gradient-3" x1="2304.6" y1="552.88" x2="2653.21" y2="552.88" xlink:href="#linear-gradient"/></defs><path class="cls-1" d="M2662,630.58c-136.49-129.36-351.3-108-351.3-108L2049,515.49v0l-.51,0-.5,0v0l-261.66,7.09s-214.81-21.36-351.3,108c0,0-265.38,583.77-246,815.34,0,0-9.13,188.61,171.26,231.58,0,0,95.74-55.93,242.11-252.94,0,0,68-93.36,177.23-84.66l268.39.79h1l268.39-.79c109.18-8.7,177.23,84.66,177.23,84.66,146.37,197,242.11,252.94,242.11,252.94,180.39-43,171.26-231.58,171.26-231.58C2927.35,1214.35,2662,630.58,2662,630.58Z"/><circle class="cls-2" cx="2375.95" cy="810.21" r="57.76"/><circle class="cls-3" cx="2605.63" cy="810.52" r="57.76"/><circle class="cls-4" cx="2490.79" cy="925.05" r="57.76"/><circle class="cls-5" cx="2490.79" cy="695.37" r="57.76"/><path class="cls-6" d="M2359.31,775.54,2376,801.32l16.63-25.78h14.08l-23.91,35.16L2406,844.88h-14.08L2376,820.07l-16,24.81h-14.18l23.16-34.18-23.91-35.16Z"/><path class="cls-7" d="M2474.15,663.7l16.54,33.4,16.82-33.4h14.08l-24.38,45.12V733h-12.95V708.62L2460,663.7Z"/><path class="cls-8" d="M2485,888.07h12.09l26.76,72.73h-14.07l-6.54-18.13h-24.59l-6.44,18.13h-14.08Zm15.76,44.67-9.72-28.58L2481,932.74Z"/><path class="cls-9" d="M2635.92,828.14a18.7,18.7,0,0,1-1.65,8.09,16.52,16.52,0,0,1-4.56,5.84,20.31,20.31,0,0,1-6.71,3.59,26.31,26.31,0,0,1-8.13,1.23h-31.53V774.16h34.93a11.85,11.85,0,0,1,6.16,1.63,15.88,15.88,0,0,1,4.69,4.26,20.46,20.46,0,0,1,3,5.94,22.16,22.16,0,0,1,1,6.71,21.45,21.45,0,0,1-2.39,10,15.19,15.19,0,0,1-7,6.92,16.85,16.85,0,0,1,8.87,6.61A20.65,20.65,0,0,1,2635.92,828.14ZM2596,786.24v18.34h16.91a7.15,7.15,0,0,0,5.47-2.46,9.63,9.63,0,0,0,2.25-6.76,10,10,0,0,0-2.07-6.66,6.42,6.42,0,0,0-5.1-2.46Zm27.11,39.24a11.67,11.67,0,0,0-.6-3.74,10.61,10.61,0,0,0-1.6-3.13,8,8,0,0,0-2.39-2.1,6.15,6.15,0,0,0-3-.76H2596V834.9h18.84a7.51,7.51,0,0,0,3.26-.72,7.73,7.73,0,0,0,2.62-2,9.71,9.71,0,0,0,1.75-3A10.47,10.47,0,0,0,2623.14,825.48Z"/><circle class="cls-10" cx="2275.88" cy="1073" r="94.87"/><circle class="cls-11" cx="2275.88" cy="1073" r="63.82"/><circle class="cls-12" cx="1602.26" cy="815.86" r="94.87"/><circle class="cls-13" cx="1816.41" cy="1091.48" r="140.02"/><circle class="cls-11" cx="1602.26" cy="815.86" r="63.82"/><circle class="cls-14" cx="1921.91" cy="808.15" r="40.03"/><circle class="cls-15" cx="2173.03" cy="808.15" r="40.03"/><path class="cls-16" d="M2069.48,599.67l-7.32,6.86,6.53,8.37c12.58,16.14,26.64,40.44,30.7,53.07.52,1.63.94,3.18,1.26,4.62a63.14,63.14,0,0,0-14.94-85.7c-.5.28-1,.57-1.46.86A98.45,98.45,0,0,0,2069.48,599.67Z"/><path class="cls-16" d="M2065.73,635.65c-13-13-15.07-13.44-16.28-13.72-2.32-.53-4.11,0-12.7,7.86-4.94,4.51-10.53,10.05-15,14.84-7.23,7.82-18,20.51-23.45,32.1a63.17,63.17,0,0,0,99.57-.35c-3.44-7.11-8.72-14.52-13.62-20.66C2079.71,650,2071.7,641.59,2065.73,635.65Z"/><path class="cls-16" d="M2025.91,610.67l2.93-3.68-5.29-4.88c-7-6.46-12.09-10.35-16.56-12.59a63.13,63.13,0,0,0-14.27,78.75c.37-1.28.79-2.57,1.25-3.86C1999.15,650.1,2012.88,627,2025.91,610.67Z"/><path class="cls-16" d="M2040.06,588.67c6.06,3.14,6.43,3.21,7,3.33a4.51,4.51,0,0,0,.88.11c1,0,2.55-.58,8.1-3.34,8-4,15.45-6.45,21.25-7.16a63.13,63.13,0,0,0-58.48-.1c.78.06,1.51.14,2.07.24C2025.58,582.56,2034.51,585.8,2040.06,588.67Z"/><path class="cls-17" d="M2069.1,879.86h-45.2a24.92,24.92,0,0,0,0,49.84h45.2a24.92,24.92,0,1,0,0-49.84Z"/><path class="cls-18" d="M1940.49,1053.79s-3-7.32-12.85-7.91h-65v-65c-.6-9.89-7.91-12.86-7.91-12.86-7.12-4.15-37-4.15-37-4.15s-31.85,0-39,4.15c0,0-7.32,3-7.91,12.86v65h-65c-9.89.59-12.86,7.91-12.86,7.91-4.15,7.12-4.15,37-4.15,37s0,31.85,4.15,39c0,0,3,7.31,12.86,7.91h65v65c.59,9.89,7.91,12.85,7.91,12.85,7.12,4.16,37,4.16,37,4.16s31.85,0,39-4.16c0,0,7.31-3,7.91-12.85v-65h65c9.89-.6,12.85-7.91,12.85-7.91,4.16-7.12,4.16-37,4.16-37S1944.65,1060.91,1940.49,1053.79Z"/><circle class="cls-11" cx="2048.5" cy="636.52" r="65.67"/><path class="cls-19" d="M1443,623.26s43.32-137.59,277-140.76c0,0,17.41,2.5,22.55,6.65,0,0,30.3,30.18,49.07,33.29C1791.65,522.44,1582.23,499.75,1443,623.26Z"/><path class="cls-20" d="M2653.21,623.26s-43.32-137.59-277-140.76c0,0-17.4,2.5-22.55,6.65,0,0-30.29,30.18-49.07,33.29C2304.6,522.44,2514,499.75,2653.21,623.26Z"/><line class="cls-21" x1="2151.97" y1="807.76" x2="2194.09" y2="807.76"/><line class="cls-21" x1="2151.97" y1="796.43" x2="2194.09" y2="796.43"/><line class="cls-21" x1="2151.97" y1="819.09" x2="2194.09" y2="819.09"/><rect class="cls-21" x="1917.97" y="805.21" width="21.22" height="16.29"/><polyline class="cls-21" points="1910.96 807.76 1904.33 807.76 1904.33 790.43 1925.93 790.43 1925.93 796.55"/><polyline class="cls-21" points="2025.55 898.43 2025.55 914.16 2070.45 914.16 2070.45 898.43"/><line class="cls-22" x1="2048" y1="905.39" x2="2048" y2="890.81"/><polyline class="cls-22" points="2038.78 900.02 2048 890.81 2057.22 900.02"/></svg>