<svg id="Layer_1" data-name="Layer 1" xmlns="http://www.w3.org/2000/svg" viewBox="0 0 4096 2160"><defs><style>.cls-1{fill:#fff;}.cls-1,.cls-2,.cls-3{stroke:#000;stroke-miterlimit:10;}.cls-1,.cls-2{stroke-width:7px;}.cls-2,.cls-3{fill:none;}.cls-3{stroke-width:5px;}</style></defs><path class="cls-1" d="M2662,630.58c-136.49-129.36-351.3-108-351.3-108L2049,515.49v0l-.51,0-.5,0v0l-261.66,7.09s-214.81-21.36-351.3,108c0,0-265.38,583.77-246,815.34,0,0-9.13,188.61,171.26,231.58,0,0,95.74-55.93,242.11-252.94,0,0,68-93.36,177.23-84.66l268.39.79h1l268.39-.79c109.18-8.7,177.23,84.66,177.23,84.66,146.37,197,242.11,252.94,242.11,252.94,180.39-43,171.26-231.58,171.26-231.58C2927.35,1214.35,2662,630.58,2662,630.58Z"/><path d="M2359.31,775.54,2376,801.32l16.63-25.78h14.08l-23.91,35.16L2406,844.88h-14.08L2376,820.07l-16,24.81h-14.18l23.16-34.18-23.91-35.16Z"/><path d="M2474.15,663.7l16.54,33.4,16.82-33.4h14.08l-24.38,45.12V733h-12.95V708.62L2460,663.7Z"/><path d="M2485,888.07h12.09l26.76,72.73h-14.07l-6.54-18.13h-24.59l-6.44,18.13h-14.08Zm15.76,44.67-9.72-28.58L2481,932.74Z"/><path d="M2635.92,828.14a18.7,18.7,0,0,1-1.65,8.09,16.52,16.52,0,0,1-4.56,5.84,20.31,20.31,0,0,1-6.71,3.59,26.31,26.31,0,0,1-8.13,1.23h-31.53V774.16h34.93a11.85,11.85,0,0,1,6.16,1.63,15.88,15.88,0,0,1,4.69,4.26,20.46,20.46,0,0,1,3,5.94,22.16,22.16,0,0,1,1,6.71,21.45,21.45,0,0,1-2.39,10,15.19,15.19,0,0,1-7,6.92,16.85,16.85,0,0,1,8.87,6.61A20.65,20.65,0,0,1,2635.92,828.14ZM2596,786.24v18.34h16.91a7.15,7.15,0,0,0,5.47-2.46,9.63,9.63,0,0,0,2.25-6.76,10,10,0,0,0-2.07-6.66,6.42,6.42,0,0,0-5.1-2.46Zm27.11,39.24a11.67,11.67,0,0,0-.6-3.74,10.61,10.61,0,0,0-1.6-3.13,8,8,0,0,0-2.39-2.1,6.15,6.15,0,0,0-3-.76H2596V834.9h18.84a7.51,7.51,0,0,0,3.26-.72,7.73,7.73,0,0,0,2.62-2,9.71,9.71,0,0,0,1.75-3A10.47,10.47,0,0,0,2623.14,825.48Z"/><circle class="cls-2" cx="2375.95" cy="810.21" r="57.76"/><circle class="cls-2" cx="2605.63" cy="810.52" r="57.76"/><circle class="cls-2" cx="2490.79" cy="925.05" r="57.76"/><circle class="cls-2" cx="2490.79" cy="695.37" r="57.76"/><circle class="cls-2" cx="2275.88" cy="1073" r="63.82"/><circle class="cls-2" cx="2275.88" cy="1073" r="94.87"/><circle class="cls-2" cx="1816.41" cy="1091.48" r="140.02"/><circle class="cls-2" cx="1602.26" cy="815.86" r="63.82"/><circle class="cls-2" cx="1921.91" cy="808.15" r="40.03"/><circle class="cls-2" cx="2173.03" cy="808.15" r="40.03"/><path class="cls-2" d="M2069.1,879.86h-45.2a24.92,24.92,0,0,0,0,49.84h45.2a24.92,24.92,0,1,0,0-49.84Z"/><circle class="cls-2" cx="1602.26" cy="815.86" r="94.87"/><path class="cls-2" d="M1940.49,1053.79s-3-7.32-12.85-7.91h-65v-65c-.6-9.89-7.91-12.86-7.91-12.86-7.12-4.15-37-4.15-37-4.15s-31.85,0-39,4.15c0,0-7.32,3-7.91,12.86v65h-65c-9.89.59-12.86,7.91-12.86,7.91-4.15,7.12-4.15,37-4.15,37s0,31.85,4.15,39c0,0,3,7.31,12.86,7.91h65v65c.59,9.89,7.91,12.85,7.91,12.85,7.12,4.16,37,4.16,37,4.16s31.85,0,39-4.16c0,0,7.31-3,7.91-12.85v-65h65c9.89-.6,12.85-7.91,12.85-7.91,4.16-7.12,4.16-37,4.16-37S1944.65,1060.91,1940.49,1053.79Z"/><circle class="cls-2" cx="2048.5" cy="636.52" r="65.67"/><path class="cls-1" d="M1443,623.26s43.32-137.59,277-140.76c0,0,17.41,2.5,22.55,6.65,0,0,30.3,30.18,49.07,33.29C1791.65,522.44,1582.23,499.75,1443,623.26Z"/><path class="cls-1" d="M2653.21,623.26s-43.32-137.59-277-140.76c0,0-17.4,2.5-22.55,6.65,0,0-30.29,30.18-49.07,33.29C2304.6,522.44,2514,499.75,2653.21,623.26Z"/><path class="cls-2" d="M2096.56,659.87c-3.72-11.58-16.16-33.12-27.58-47.77l-3.59-4.61,3.89-3.65a82.63,82.63,0,0,1,12.41-10,26.55,26.55,0,0,1,8.4-3.53,61.89,61.89,0,0,0-12.12-9l-.55,0c-6-.31-14.78,2.17-24.19,6.85a50.13,50.13,0,0,1-5.49,2.5c-.18,0-2.49-1.18-5.14-2.56-5.27-2.73-13.4-5.66-17.89-6.45a32.56,32.56,0,0,0-6-.34l-1.07,0a62.14,62.14,0,0,0-12.12,9,10.16,10.16,0,0,1,3.28.8c4.67,1.6,9.66,5.12,17.39,12.25l4.52,4.17-2.47,3.09c-11.44,14.34-23.52,34.66-28.07,47.24-2.26,6.26-3.29,12.54-2.63,15.75a63,63,0,0,0,7.84,9.08,8,8,0,0,1-.43-2.78c0-7.75,8.35-21.31,22.63-36.78,8.11-8.78,19.41-19.07,20.63-18.8,2.37.55,21.36,19.44,28.47,28.34,10.31,12.9,15.51,23.66,14.27,29.31a62.65,62.65,0,0,0,7.52-9C2099,670.06,2098.21,665,2096.56,659.87Z"/><line class="cls-3" x1="2151.97" y1="807.76" x2="2194.09" y2="807.76"/><line class="cls-3" x1="2151.97" y1="796.43" x2="2194.09" y2="796.43"/><line class="cls-3" x1="2151.97" y1="819.09" x2="2194.09" y2="819.09"/><rect class="cls-3" x="1917.97" y="805.21" width="21.22" height="16.29"/><polyline class="cls-3" points="1910.96 807.76 1904.33 807.76 1904.33 790.43 1925.93 790.43 1925.93 796.55"/><polyline class="cls-3" points="2025.55 898.43 2025.55 914.16 2070.45 914.16 2070.45 898.43"/><line class="cls-3" x1="2048" y1="906.29" x2="2048" y2="889.91"/><polyline class="cls-3" points="2038.78 900.02 2048 890.81 2057.22 900.02"/></svg>