<svg id="Layer_1" data-name="Layer 1" xmlns="http://www.w3.org/2000/svg" viewBox="0 0 512 512"><defs><style>.cls-1{fill:#fff;}</style></defs><path class="cls-1" d="M335.41,180.43H176.59a75.57,75.57,0,0,0,0,151.14H335.41a75.57,75.57,0,0,0,0-151.14Zm-113.6,51.79,39.45-39.46,39.46,39.46a10,10,0,0,1-14.15,14.14l-15.31-15.31v30.27h-20V231.05L236,246.36a10,10,0,1,1-14.14-14.14ZM350.15,299H172.38V233.69h20V279H330.15V233.69h20Z"/><path class="cls-1" d="M352,132.55H160c-58.49,0-110.9,55.82-110.9,123.45S101.48,378.45,160,378.45H352c58.49,0,110.9-54.82,110.9-122.45S410.52,132.55,352,132.55Zm-16.62,223H176.59a99.57,99.57,0,0,1,0-199.14H335.41a99.57,99.57,0,0,1,0,199.14Z"/></svg>