<svg id="Layer_1" data-name="Layer 1" xmlns="http://www.w3.org/2000/svg" viewBox="0 0 512 512"><defs><style>.cls-1{fill:#fff;}</style></defs><path class="cls-1" d="M256,55.59C145.32,55.59,55.59,145.32,55.59,256S145.32,456.41,256,456.41,456.41,366.68,456.41,256,366.68,55.59,256,55.59Zm0,378.63c-98.27,0-178.22-80-178.22-178.22S157.73,77.78,256,77.78,434.22,157.73,434.22,256,354.27,434.22,256,434.22Z"/><rect class="cls-1" x="246.51" y="262.1" width="89.16" height="63.82"/><path class="cls-1" d="M256,101.78C171,101.78,101.78,171,101.78,256S171,410.22,256,410.22,410.22,341,410.22,256,341,101.78,256,101.78ZM207.35,275.2h-51V166.08H287.44v61.36h-20V186.08H176.33V255.2h31Zm148.32,70.72H226.51V242.1H355.67Z"/></svg>