<svg id="Layer_1" data-name="Layer 1" xmlns="http://www.w3.org/2000/svg" viewBox="0 0 512 512"><path d="M89.83,145.94l-9.94-7.43L11.36,253.09,79.89,368.6l9.94-8.37c-21.28-29.17-34.06-66.48-34.06-107.14S68.55,175.11,89.83,145.94Z"/><path d="M363.11,88.83l7.43-9.94L256,10.36,140.46,78.89l8.36,9.94C178,67.55,215.3,54.77,256,54.77S333.94,67.55,363.11,88.83Z"/><path d="M425.2,363.61l9.94,7.43,68.53-114.57L435.14,141l-9.94,8.36c21.28,29.17,34.06,66.48,34.06,107.15S446.48,334.44,425.2,363.61Z"/><path d="M147.89,425.31l-7.43,9.94L255,503.78l115.51-68.53-8.36-9.94C333,446.59,295.7,459.37,255,459.37S177.06,446.59,147.89,425.31Z"/><path d="M256,152.93A103.07,103.07,0,1,0,359.07,256,103.19,103.19,0,0,0,256,152.93Zm38.38,148.28H226.66V206.57h21.86V282h45.86Z"/><path d="M256,83A173,173,0,1,0,429,256,173,173,0,0,0,256,83Zm0,294.29A121.25,121.25,0,1,1,377.25,256,121.38,121.38,0,0,1,256,377.25Z"/></svg>