<svg id="Layer_1" data-name="Layer 1" xmlns="http://www.w3.org/2000/svg" viewBox="0 0 512 512"><path d="M147.89,425.31l-7.43,9.94L255,503.78l115.51-68.53-8.36-9.94C333,446.59,295.7,459.37,255,459.37S177.06,446.59,147.89,425.31Z"/><path d="M256,83A173,173,0,1,0,429,256,173,173,0,0,0,256,83Zm0,294.29A121.25,121.25,0,1,1,377.25,256,121.38,121.38,0,0,1,256,377.25Z"/><path d="M256,152.93A103.07,103.07,0,1,0,359.07,256,103.19,103.19,0,0,0,256,152.93Zm20.35,152.32-19.7-33.18h-15.5v33.18H217.39V202.38h46.36a30,30,0,0,1,13.4,3,35.72,35.72,0,0,1,10.65,8,37.5,37.5,0,0,1,7,11.16,33.14,33.14,0,0,1,2.53,12.6,35.74,35.74,0,0,1-1.16,9.2,35.38,35.38,0,0,1-3.33,8.33,31.31,31.31,0,0,1-5.29,7,31.71,31.71,0,0,1-7,5.29l22.6,38.25Z"/><path d="M262.16,223.25h-21v28.1h21.73c2.8,0,5.22-1.32,7.24-4a16.36,16.36,0,0,0,3.05-10.22q0-6.37-3.48-10.14T262.16,223.25Z"/></svg>