<svg id="Layer_1" data-name="Layer 1" xmlns="http://www.w3.org/2000/svg" viewBox="0 0 4096 2160"><defs><style>.cls-1,.cls-3,.cls-4{fill:none;stroke:#fff;stroke-miterlimit:10;}.cls-1{stroke-width:7px;}.cls-2{fill:#fff;}.cls-3{stroke-width:5px;}.cls-4{stroke-width:10px;}</style></defs><path class="cls-1" d="M2662,630.58c-136.49-129.36-351.3-108-351.3-108L2049,515.49v0l-.51,0-.5,0v0l-261.66,7.09s-214.81-21.36-351.3,108c0,0-265.38,583.77-246,815.34,0,0-9.13,188.61,171.26,231.58,0,0,95.74-55.93,242.11-252.94,0,0,68-93.36,177.23-84.66l268.39.79h1l268.39-.79c109.18-8.7,177.23,84.66,177.23,84.66,146.37,197,242.11,252.94,242.11,252.94,180.39-43,171.26-231.58,171.26-231.58C2927.35,1214.35,2662,630.58,2662,630.58Z"/><path class="cls-2" d="M2359.31,775.54,2376,801.32l16.63-25.78h14.08l-23.91,35.16L2406,844.88h-14.08L2376,820.07l-16,24.81h-14.18l23.16-34.18-23.91-35.16Z"/><path class="cls-2" d="M2474.15,663.7l16.54,33.4,16.82-33.4h14.08l-24.38,45.12V733h-12.95V708.62L2460,663.7Z"/><path class="cls-2" d="M2485,888.07h12.09l26.76,72.73h-14.07l-6.54-18.13h-24.59l-6.44,18.13h-14.08Zm15.76,44.67-9.72-28.58L2481,932.74Z"/><path class="cls-2" d="M2635.92,828.14a18.7,18.7,0,0,1-1.65,8.09,16.52,16.52,0,0,1-4.56,5.84,20.31,20.31,0,0,1-6.71,3.59,26.31,26.31,0,0,1-8.13,1.23h-31.53V774.16h34.93a11.85,11.85,0,0,1,6.16,1.63,15.88,15.88,0,0,1,4.69,4.26,20.46,20.46,0,0,1,3,5.94,22.16,22.16,0,0,1,1,6.71,21.45,21.45,0,0,1-2.39,10,15.19,15.19,0,0,1-7,6.92,16.85,16.85,0,0,1,8.87,6.61A20.65,20.65,0,0,1,2635.92,828.14ZM2596,786.24v18.34h16.91a7.15,7.15,0,0,0,5.47-2.46,9.63,9.63,0,0,0,2.25-6.76,10,10,0,0,0-2.07-6.66,6.42,6.42,0,0,0-5.1-2.46Zm27.11,39.24a11.67,11.67,0,0,0-.6-3.74,10.61,10.61,0,0,0-1.6-3.13,8,8,0,0,0-2.39-2.1,6.15,6.15,0,0,0-3-.76H2596V834.9h18.84a7.51,7.51,0,0,0,3.26-.72,7.73,7.73,0,0,0,2.62-2,9.71,9.71,0,0,0,1.75-3A10.47,10.47,0,0,0,2623.14,825.48Z"/><circle class="cls-1" cx="2375.95" cy="810.21" r="57.76"/><circle class="cls-1" cx="2605.63" cy="810.52" r="57.76"/><circle class="cls-1" cx="2490.79" cy="925.05" r="57.76"/><circle class="cls-1" cx="2490.79" cy="695.37" r="57.76"/><circle class="cls-1" cx="2275.88" cy="1073" r="63.82"/><circle class="cls-1" cx="2275.88" cy="1073" r="94.87"/><circle class="cls-1" cx="1816.41" cy="1091.48" r="140.02"/><circle class="cls-1" cx="1602.26" cy="815.86" r="63.82"/><circle class="cls-1" cx="1921.91" cy="808.15" r="40.03"/><circle class="cls-1" cx="2173.03" cy="808.15" r="40.03"/><path class="cls-1" d="M2069.1,879.86h-45.2a24.92,24.92,0,0,0,0,49.84h45.2a24.92,24.92,0,1,0,0-49.84Z"/><circle class="cls-1" cx="1602.26" cy="815.86" r="94.87"/><path class="cls-1" d="M1940.49,1053.79s-3-7.32-12.85-7.91h-65v-65c-.6-9.89-7.91-12.86-7.91-12.86-7.12-4.15-37-4.15-37-4.15s-31.85,0-39,4.15c0,0-7.32,3-7.91,12.86v65h-65c-9.89.59-12.86,7.91-12.86,7.91-4.15,7.12-4.15,37-4.15,37s0,31.85,4.15,39c0,0,3,7.31,12.86,7.91h65v65c.59,9.89,7.91,12.85,7.91,12.85,7.12,4.16,37,4.16,37,4.16s31.85,0,39-4.16c0,0,7.31-3,7.91-12.85v-65h65c9.89-.6,12.85-7.91,12.85-7.91,4.16-7.12,4.16-37,4.16-37S1944.65,1060.91,1940.49,1053.79Z"/><circle class="cls-1" cx="2048.5" cy="636.52" r="65.67"/><path class="cls-1" d="M1443,623.26s43.32-137.59,277-140.76c0,0,17.41,2.5,22.55,6.65,0,0,30.3,30.18,49.07,33.29C1791.65,522.44,1582.23,499.75,1443,623.26Z"/><path class="cls-1" d="M2653.21,623.26s-43.32-137.59-277-140.76c0,0-17.4,2.5-22.55,6.65,0,0-30.29,30.18-49.07,33.29C2304.6,522.44,2514,499.75,2653.21,623.26Z"/><path class="cls-1" d="M2096.56,659.87c-3.72-11.58-16.16-33.12-27.58-47.77l-3.59-4.61,3.89-3.65a82.63,82.63,0,0,1,12.41-10,26.55,26.55,0,0,1,8.4-3.53,61.89,61.89,0,0,0-12.12-9l-.55,0c-6-.31-14.78,2.17-24.19,6.85a50.13,50.13,0,0,1-5.49,2.5c-.18,0-2.49-1.18-5.14-2.56-5.27-2.73-13.4-5.66-17.89-6.45a32.56,32.56,0,0,0-6-.34l-1.07,0a62.14,62.14,0,0,0-12.12,9,10.16,10.16,0,0,1,3.28.8c4.67,1.6,9.66,5.12,17.39,12.25l4.52,4.17-2.47,3.09c-11.44,14.34-23.52,34.66-28.07,47.24-2.26,6.26-3.29,12.54-2.63,15.75a63,63,0,0,0,7.84,9.08,8,8,0,0,1-.43-2.78c0-7.75,8.35-21.31,22.63-36.78,8.11-8.78,19.41-19.07,20.63-18.8,2.37.55,21.36,19.44,28.47,28.34,10.31,12.9,15.51,23.66,14.27,29.31a62.65,62.65,0,0,0,7.52-9C2099,670.06,2098.21,665,2096.56,659.87Z"/><line class="cls-3" x1="2151.97" y1="807.76" x2="2194.09" y2="807.76"/><line class="cls-3" x1="2151.97" y1="796.43" x2="2194.09" y2="796.43"/><line class="cls-3" x1="2151.97" y1="819.09" x2="2194.09" y2="819.09"/><rect class="cls-3" x="1917.97" y="805.21" width="21.22" height="16.29"/><polyline class="cls-3" points="1910.96 807.76 1904.33 807.76 1904.33 790.43 1925.93 790.43 1925.93 796.55"/><polyline class="cls-3" points="2025.55 898.43 2025.55 914.16 2070.45 914.16 2070.45 898.43"/><line class="cls-3" x1="2048" y1="906.29" x2="2048" y2="889.91"/><polyline class="cls-3" points="2038.78 900.02 2048 890.81 2057.22 900.02"/><polyline class="cls-1" points="2568.5 482.5 2739.31 311.69 2972.53 311.69"/><polyline class="cls-1" points="1528.23 482.5 1355.69 309.96 1122.47 309.96"/><path class="cls-4" d="M1100.65,223.8,1080.89,204a15.73,15.73,0,0,0-10.27-4.6c-18.77-1-76.34-1.7-108.4,24.69l-6.4,46A12.22,12.22,0,0,0,967.92,284H1085a11.05,11.05,0,0,0,10.09-6.54c3.62-8.05,9.2-22.7,10.78-39.23A18,18,0,0,0,1100.65,223.8Z"/><path class="cls-2" d="M1003.43,260.1V224h8.34v28.77h17.49v7.32Z"/><path class="cls-2" d="M1063,250.85a8.14,8.14,0,0,1-1,4.07,8.33,8.33,0,0,1-2.64,2.87,12.52,12.52,0,0,1-3.92,1.73,18.55,18.55,0,0,1-4.72.58h-17.6V224h20.09a7.11,7.11,0,0,1,3.4.81,8.48,8.48,0,0,1,2.6,2.11,9.68,9.68,0,0,1,1.65,2.95,10.05,10.05,0,0,1,.58,3.38,9.79,9.79,0,0,1-1.29,4.88,8.19,8.19,0,0,1-3.89,3.46,9.33,9.33,0,0,1,4.9,3.25A9.5,9.5,0,0,1,1063,250.85Zm-21.51-19.73v7.48h8.19a3.65,3.65,0,0,0,2.44-.92,3.55,3.55,0,0,0,1.07-2.84,3.8,3.8,0,0,0-.94-2.75,3.09,3.09,0,0,0-2.27-1Zm13,18a4.27,4.27,0,0,0-1-2.84,3,3,0,0,0-2.44-1.17h-9.61V253h9.26a3.66,3.66,0,0,0,2.69-1.07A3.78,3.78,0,0,0,1054.53,249.17Z"/><path class="cls-4" d="M3005.26,223.85l19.39-19.39a15.41,15.41,0,0,1,10.08-4.52c18.42-1,74.93-1.67,106.38,24.24l6.29,45.14A12,12,0,0,1,3135.52,283H3020.64a10.83,10.83,0,0,1-9.91-6.41c-3.55-7.9-9-22.28-10.58-38.5A17.72,17.72,0,0,1,3005.26,223.85Z"/><path class="cls-2" d="M3046.91,259.48V224.05h16a10.23,10.23,0,0,1,4.61,1,12.21,12.21,0,0,1,3.67,2.74,12.8,12.8,0,0,1,2.42,3.84,11.52,11.52,0,0,1,.87,4.35,12.67,12.67,0,0,1-.39,3.16,12.39,12.39,0,0,1-1.15,2.87,10.89,10.89,0,0,1-1.82,2.42,10.74,10.74,0,0,1-2.42,1.82l7.78,13.18h-9.23l-6.79-11.43h-5.33v11.43Zm8.19-18.56h7.48a3.06,3.06,0,0,0,2.49-1.38,5.59,5.59,0,0,0,1-3.51,5,5,0,0,0-1.2-3.5,3.5,3.5,0,0,0-2.59-1.29h-7.23Z"/><path class="cls-2" d="M3109.63,250.4a8.07,8.07,0,0,1-1,4,8.21,8.21,0,0,1-2.59,2.82,12.44,12.44,0,0,1-3.84,1.69,18,18,0,0,1-4.64.58h-17.27V224.05h19.71a7,7,0,0,1,3.34.8,8.3,8.3,0,0,1,2.55,2.07,9.42,9.42,0,0,1,1.62,2.89,10,10,0,0,1,.57,3.32,9.54,9.54,0,0,1-1.27,4.79,8,8,0,0,1-3.81,3.39,9.2,9.2,0,0,1,4.81,3.2A9.36,9.36,0,0,1,3109.63,250.4ZM3088.53,231v7.33h8a3.54,3.54,0,0,0,2.39-.9,3.48,3.48,0,0,0,1.05-2.79,3.74,3.74,0,0,0-.92-2.7,3,3,0,0,0-2.22-.94Zm12.77,17.71a4.28,4.28,0,0,0-1-2.8,3,3,0,0,0-2.39-1.14h-9.43v7.73h9.08a3.58,3.58,0,0,0,2.64-1A3.7,3.7,0,0,0,3101.3,248.75Z"/><path class="cls-4" d="M3145.67,314.57H3022.13a28.31,28.31,0,0,0-4.17.6c-16.15,2.43-8,17.83-7.52,19.37,4.82,14.71,24,82.15-9.42,135.31a16.24,16.24,0,0,1-1.07,1.5c-2.33,3-11.1,15.68,4.58,22.45a14.65,14.65,0,0,0,5.77,1.16h68.58a14.85,14.85,0,0,0,3.19-.35c11.67-2.55,78.49-20.42,85.28-97q0-.48.06-1c.19-4.94,1.49-47.38-8-72.65A14.67,14.67,0,0,0,3145.67,314.57Z"/><path class="cls-2" d="M3044.56,423.77v-53.9h24.3a15.66,15.66,0,0,1,7,1.59,18.83,18.83,0,0,1,5.58,4.18,19.44,19.44,0,0,1,3.68,5.84,17.34,17.34,0,0,1,1.33,6.61,18.94,18.94,0,0,1-2.35,9.19,17,17,0,0,1-2.77,3.68,16.51,16.51,0,0,1-3.69,2.77l11.85,20h-14.05l-10.32-17.39H3057v17.39ZM3057,395.53h11.38a4.68,4.68,0,0,0,3.8-2.09,8.57,8.57,0,0,0,1.59-5.35,7.52,7.52,0,0,0-1.82-5.32,5.35,5.35,0,0,0-3.95-2h-11Z"/><path class="cls-2" d="M3135.67,380.8h-16.4v43h-12.45v-43h-16.48V369.87h45.33Z"/><path class="cls-4" d="M965.82,319.47H1086a28.15,28.15,0,0,1,4.06.58c15.71,2.37,7.8,17.35,7.31,18.85-4.69,14.31-23.36,79.91,9.17,131.63a16.77,16.77,0,0,0,1,1.46c2.27,2.88,10.8,15.25-4.45,21.84a14.29,14.29,0,0,1-5.62,1.13h-66.72a14.65,14.65,0,0,1-3.1-.34c-11.35-2.48-76.36-19.87-83-94.36q0-.47-.06-.93c-.18-4.81-1.45-46.1,7.74-70.68A14.28,14.28,0,0,1,965.82,319.47Z"/><path class="cls-2" d="M986.31,425.7V373.26h12.11v41.81h25.4V425.7Z"/><path class="cls-2" d="M1060.75,383.9h-16v41.8h-12.11V383.9h-16V373.26h44.09Z"/><polyline class="cls-1" points="2602.48 925.05 2675.63 998.2 3045.72 998.2"/><path class="cls-2" d="M3097.55,752.21h11l24.31,66.06h-12.79l-5.94-16.47h-22.33l-5.85,16.47h-12.78Zm14.32,40.57-8.82-26-9.19,26Z"/><circle class="cls-4" cx="3103" cy="788.47" r="51.96"/><path class="cls-2" d="M3127.63,945.28a16.71,16.71,0,0,1-1.48,7.22,14.94,14.94,0,0,1-4.06,5.22,18.39,18.39,0,0,1-6,3.2,23.58,23.58,0,0,1-7.26,1.1h-28.16V897.07h31.2a10.65,10.65,0,0,1,5.5,1.46,14.16,14.16,0,0,1,4.18,3.8,18,18,0,0,1,2.67,5.3,19.71,19.71,0,0,1,.94,6,19.26,19.26,0,0,1-2.13,8.92,13.54,13.54,0,0,1-6.24,6.18,15,15,0,0,1,7.92,5.9A18.37,18.37,0,0,1,3127.63,945.28ZM3092,907.86v16.38h15.11A6.39,6.39,0,0,0,3112,922a8.61,8.61,0,0,0,2-6,8.87,8.87,0,0,0-1.85-5.94,5.71,5.71,0,0,0-4.55-2.2Zm24.22,35a10.39,10.39,0,0,0-.54-3.34,9.41,9.41,0,0,0-1.43-2.79,7,7,0,0,0-2.14-1.88,5.53,5.53,0,0,0-2.71-.68H3092v17.1h16.83a6.66,6.66,0,0,0,2.91-.64,6.81,6.81,0,0,0,2.34-1.78,8.54,8.54,0,0,0,1.56-2.7A9.49,9.49,0,0,0,3116.22,942.9Z"/><circle class="cls-4" cx="3101.34" cy="928.29" r="51.96"/><path class="cls-2" d="M3088.26,1037l15.94,24.56,15.85-24.56h13.41l-22.78,33.49,22.06,32.57h-13.41l-15.13-23.63L3089,1103h-13.5l22.06-32.57L3074.76,1037Z"/><circle class="cls-4" cx="3104.11" cy="1068.11" r="51.96"/><path class="cls-2" d="M3088.31,1178.34l15.75,31.82,16-31.82h13.41l-23.23,43v23.07h-12.33v-23.26l-23.14-42.8Z"/><circle class="cls-4" cx="3104.15" cy="1207.93" r="51.96"/><polyline class="cls-1" points="2375.95 1167.87 2879.39 1671.32 3279.72 1671.32"/><polyline class="cls-1" points="1676.39 1223.91 1469.61 1430.69 931.57 1430.69"/><polyline class="cls-1" points="1506 906.29 1414.09 998.2 1044 998.2"/><path class="cls-2" d="M793.62,1663.66a6.49,6.49,0,0,0,5.78,3.57h34.27V1625.9H799.4a6.49,6.49,0,0,0-5.78,3.56c-1.87,3.21-1.87,16.66-1.87,16.66S791.75,1660.46,793.62,1663.66Z"/><path class="cls-4" d="M793.62,1663.66a6.49,6.49,0,0,0,5.78,3.57h29.26v29.26a6.49,6.49,0,0,0,3.56,5.79c3.21,1.87,16.66,1.87,16.66,1.87s14.34,0,17.54-1.87a6.49,6.49,0,0,0,3.56-5.79v-29.26h29.27a6.51,6.51,0,0,0,5.79-3.57c1.87-3.2,1.87-16.65,1.87-16.65s0-14.34-1.87-17.55a6.51,6.51,0,0,0-5.79-3.56H870v-29.25a6.48,6.48,0,0,0-3.56-5.79c-3.2-1.87-16.65-1.87-16.65-1.87s-14.34,0-17.55,1.87a6.48,6.48,0,0,0-3.56,5.79v29.26H799.4a6.49,6.49,0,0,0-5.78,3.56c-1.87,3.21-1.87,16.66-1.87,16.66S791.75,1660.46,793.62,1663.66Z"/><path class="cls-2" d="M832.23,1159.1a6.51,6.51,0,0,0-3.56,5.79v34.26H870v-34.26a6.49,6.49,0,0,0-3.56-5.79c-3.2-1.87-16.65-1.87-16.65-1.87S835.44,1157.23,832.23,1159.1Z"/><path class="cls-4" d="M832.23,1159.1a6.51,6.51,0,0,0-3.56,5.79v29.26H799.41a6.49,6.49,0,0,0-5.79,3.57c-1.87,3.2-1.87,16.65-1.87,16.65s0,14.34,1.87,17.55a6.49,6.49,0,0,0,5.79,3.56h29.26v29.27a6.49,6.49,0,0,0,3.56,5.79c3.21,1.87,16.66,1.87,16.66,1.87s14.34,0,17.54-1.87a6.49,6.49,0,0,0,3.57-5.79v-29.26h29.26a6.51,6.51,0,0,0,5.79-3.56c1.87-3.21,1.87-16.66,1.87-16.66s0-14.34-1.87-17.54a6.51,6.51,0,0,0-5.79-3.57H870v-29.26a6.49,6.49,0,0,0-3.56-5.79c-3.2-1.87-16.65-1.87-16.65-1.87S835.44,1157.23,832.23,1159.1Z"/><path class="cls-2" d="M866.43,1558.28a6.49,6.49,0,0,0,3.56-5.79v-34.26H828.67v34.26a6.51,6.51,0,0,0,3.56,5.79c3.21,1.87,16.66,1.87,16.66,1.87S863.23,1560.15,866.43,1558.28Z"/><path class="cls-4" d="M866.43,1558.28a6.49,6.49,0,0,0,3.56-5.79v-29.26h29.26a6.51,6.51,0,0,0,5.79-3.56c1.87-3.21,1.87-16.66,1.87-16.66s0-14.34-1.87-17.55a6.51,6.51,0,0,0-5.79-3.56H870v-29.27a6.49,6.49,0,0,0-3.56-5.79c-3.2-1.87-16.65-1.87-16.65-1.87s-14.34,0-17.55,1.87a6.51,6.51,0,0,0-3.56,5.79v29.26H799.41a6.49,6.49,0,0,0-5.79,3.56c-1.87,3.21-1.87,16.66-1.87,16.66s0,14.34,1.87,17.55a6.49,6.49,0,0,0,5.79,3.56h29.26v29.26a6.51,6.51,0,0,0,3.56,5.79c3.21,1.87,16.66,1.87,16.66,1.87S863.23,1560.15,866.43,1558.28Z"/><path class="cls-2" d="M905.05,1341.63a6.51,6.51,0,0,0-5.79-3.56H865v41.23h34.26a6.51,6.51,0,0,0,5.79-3.56c1.87-3.2,1.87-16.62,1.87-16.62S906.92,1344.83,905.05,1341.63Z"/><path class="cls-4" d="M905.05,1341.63a6.51,6.51,0,0,0-5.79-3.56H870v-29.2a6.46,6.46,0,0,0-3.56-5.77c-3.2-1.87-16.65-1.87-16.65-1.87s-14.34,0-17.55,1.87a6.48,6.48,0,0,0-3.56,5.77v29.2H799.41a6.49,6.49,0,0,0-5.79,3.56c-1.87,3.2-1.87,16.62-1.87,16.62s0,14.3,1.87,17.5a6.49,6.49,0,0,0,5.79,3.56h29.26v29.19a6.51,6.51,0,0,0,3.56,5.78c3.21,1.86,16.66,1.86,16.66,1.86s14.34,0,17.54-1.86a6.51,6.51,0,0,0,3.57-5.78V1379.3h29.26a6.51,6.51,0,0,0,5.79-3.56c1.87-3.2,1.87-16.62,1.87-16.62S906.92,1344.83,905.05,1341.63Z"/><polyline class="cls-1" points="2173.03 733.04 2173.03 464.92 2331.81 306.14"/><polyline class="cls-1" points="1926.64 733.04 1926.64 464.92 1767.86 306.14"/></svg>